# xmcd
#
# Track frame offsets: 
#        150
#        12121
#        22395
#        37287
#        47520
#        56982
#        68924
#        80736
#        91478
#        104360
#        119115
#        131895
#        142990
#        152774
#        163944
#        175432
#        185950
#        197737
#        208291
#        220148
#
# Disc length: 3060 seconds
#
# Revision: 0
# Processed by: cddbd v1.5.2PL0 Copyright (c) Steve Scherf et al.
# Submitted via: ExactAudioCopy v0.99pb5
#
DISCID=460bf214
DTITLE=Marie Osmond - Paper Roses - In My Little Corner Of The World
DYEAR=2009
DGENRE=Country
TTITLE0=Paper Roses
TTITLE1=Louisiana Bayou
TTITLE2=Everything Is Beautiful
TTITLE3=You're The Only World I Know
TTITLE4=Fool No. 1
TTITLE5=Least Of All You
TTITLE6=Sweet Dreams
TTITLE7=Too Many Rivers
TTITLE8=It's Such A Pretty World Today
TTITLE9=True Love Lasts Forever
TTITLE10=In My Little Corner Of The World
TTITLE11=Big Hurts Can Come (From Little White Lies)
TTITLE12=Invisible Tears
TTITLE13=I Love You So Much It Hurts
TTITLE14=Everybody's Somebody's Fool
TTITLE15=True Love's A Blessing
TTITLE16=I Love You Because
TTITLE17=It's Just The Other Way Around
TTITLE18=Crazy Arms
TTITLE19=Singing The Blues
EXTD=
EXTT0=
EXTT1=
EXTT2=
EXTT3=
EXTT4=
EXTT5=
EXTT6=
EXTT7=
EXTT8=
EXTT9=
EXTT10=
EXTT11=
EXTT12=
EXTT13=
EXTT14=
EXTT15=
EXTT16=
EXTT17=
EXTT18=
EXTT19=
PLAYORDER=
